#!OML:ASF F:\VICON\USERDATA\INSTALL\Justin_Nancy\Justin_Nancy.ASF
:FULLY-SPECIFIED
:DEGREES
388
root 0.888101 17.4597 17.2361 0.765047 -2.87313 -2.07675
lowerback 14.283 0.47455 2.45647
upperback -0.00308097 1.25304 2.62398
thorax -8.04583 0.564425 1.14901
lowerneck -20.2053 -3.72067 -9.01424
upperneck 16.6002 -4.06287 7.74916
head 8.86822 -1.65704 3.58843
rclavicle 6.36111e-015 2.06736e-014
rhumerus -42.182 1.1234 -77.8927
rradius 74.9082
rwrist -3.66439
rhand -22.5881 11.5269
rfingers 7.12502
rthumb 3.84089 -18.4183
lclavicle 6.36111e-015 2.06736e-014
lhumerus -35.3576 7.2563 85.9861
lradius 52.7458
lwrist 1.90797
lhand -26.468 19.3936
lfingers 7.12502
lthumb 0.0937301 49.3733
rfemur -20.6261 4.91708 20.5214
rtibia 44.2686
rfoot -6.12022 -6.97457
rtoes 6.39062
lfemur -25.5086 -0.41905 -17.3799
ltibia 55.4678
lfoot -6.77994 -4.70532
ltoes -15.4846
389
root 0.899574 17.6142 17.3789 0.965927 -2.66573 -1.97722
lowerback 13.7906 0.499465 2.4337
upperback -0.112162 1.26365 2.5986
thorax -7.88492 0.571266 1.13559
lowerneck -20.2938 -3.7879 -8.96756
upperneck 16.6616 -4.14133 7.63957
head 8.90848 -1.70087 3.53194
rclavicle 5.86415e-015 2.8625e-014
rhumerus -42.1687 1.54525 -77.6228
rradius 76.2811
rwrist -4.43408
rhand -22.4115 10.251
rfingers 7.12502
rthumb 4.01139 -19.691
lclavicle 5.86415e-015 2.8625e-014
lhumerus -35.503 6.85465 85.6215
lradius 52.4111
lwrist 1.51622
lhand -26.6986 17.7997
lfingers 7.12502
lthumb -0.129028 47.7794
rfemur -19.5216 5.22307 20.3284
rtibia 42.6002
rfoot -4.2525 -6.84344
rtoes 7.63561
lfemur -24.7574 -0.533421 -17.5078
ltibia 54.1242
lfoot -4.99095 -5.20915
ltoes -14.8882
390
root 0.910263 17.7615 17.5205 1.15738 -2.47866 -1.83528
lowerback 13.2457 0.540368 2.34505
upperback -0.0718149 1.27674 2.56475
thorax -7.53409 0.583321 1.14991
lowerneck -20.8441 -3.86395 -8.93367
upperneck 16.8351 -4.21021 7.60981
head 9.06979 -1.72335 3.50681
rclavicle -8.54774e-015 -1.82882e-014
rhumerus -42.0215 1.82599 -77.3325
rradius 77.6614
rwrist -4.98182
rhand -22.2279 9.6131
rfingers 7.12502
rthumb 4.18871 -20.3255
lclavicle -8.54774e-015 -1.82882e-014
lhumerus -35.484 6.53784 85.2367
lradius 52.5233
lwrist 0.783502
lhand -26.6342 19.2049
lfingers 7.12502
lthumb -0.0668148 49.1846
rfemur -18.5142 5.55282 20.0999
rtibia 41.0658
rfoot -2.48945 -6.78226
rtoes 7.84605
lfemur -24.0028 -0.557737 -17.7177
ltibia 52.9437
lfoot -3.39659 -5.53365
ltoes -14.3254
391
root 0.922006 17.9062 17.6631 1.32546 -2.26043 -1.6478
lowerback 12.6711 0.621265 2.22831
upperback -0.00265296 1.33908 2.54578
thorax -7.13751 0.620809 1.18752
lowerneck -21.2759 -3.98728 -9.05694
upperneck 16.9822 -4.31427 7.62544
head 9.20951 -1.76996 3.51822
rclavicle 9.34288e-015 3.18055e-015
rhumerus -41.884 1.95566 -76.8961
rradius 79.0056
rwrist -5.42323
rhand -22.0867 9.55629
rfingers 7.12502
rthumb 4.32505 -20.3795
lclavicle 9.34288e-015 3.18055e-015
lhumerus -35.4257 6.2721 84.9028
lradius 52.7532
lwrist -0.426507
lhand -26.4165 22.8564
lfingers 7.12502
lthumb 0.143443 52.8361
rfemur -17.5507 5.85211 19.8028
rtibia 39.6748
rfoot -0.968197 -6.84027
rtoes 8.94673
lfemur -23.3751 -0.531685 -17.9923
ltibia 51.8768
lfoot -2.04095 -5.46086
ltoes -12.7719
392
root 0.937601 18.0413 17.8012 1.56446 -2.10781 -1.7841
lowerback 12.1779 0.697192 2.52065
upperback -0.136135 1.46688 2.54503
thorax -6.99514 0.673883 1.00311
lowerneck -21.2083 -4.1266 -9.30745
upperneck 17.167 -4.49832 7.86796
head 9.29139 -1.84753 3.62146
rclavicle 2.28602e-015 -4.77083e-015
rhumerus -41.9618 2.16357 -76.5575
rradius 80.0735
rwrist -5.78005
rhand -22.2135 9.82232
rfingers 7.12502
rthumb 4.20259 -20.116
lclavicle 2.28602e-015 -4.77083e-015
lhumerus -35.6705 5.89289 84.4384
lradius 51.9654
lwrist 0.59997
lhand -26.9328 16.1482
lfingers 7.12502
lthumb -0.355146 46.1277
rfemur -16.7511 6.06411 19.8347
rtibia 38.3783
rfoot 0.571592 -6.69971
rtoes 9.60687
lfemur -22.8839 -0.322103 -17.9474
ltibia 50.8852
lfoot -1.07212 -4.75027
ltoes -12.341
393
root 0.952122 18.166 17.9267 1.87525 -2.00624 -1.90279
lowerback 11.9086 0.742817 2.67493
upperback -0.448692 1.55068 2.55092
thorax -7.17299 0.707001 0.910536
lowerneck -20.8132 -4.13672 -9.4173
upperneck 17.3002 -4.55978 8.03424
head 9.28081 -1.87393 3.69327
rclavicle -1.11319e-014 1.90833e-014
rhumerus -42.1224 2.62022 -76.331
rradius 81.0238
rwrist -6.17982
rhand -22.2388 9.6415
rfingers 7.12502
rthumb 4.17821 -20.2973
lclavicle -1.11319e-014 1.90833e-014
lhumerus -36.1743 5.68977 83.7718
lradius 52.3151
lwrist -0.581336
lhand -26.6197 21.8329
lfingers 7.12502
lthumb -0.0527486 51.8126
rfemur -16.1511 6.26326 19.8577
rtibia 37.1778
rfoot 2.28827 -6.44848
rtoes 9.98347
lfemur -22.5524 -0.0913331 -17.9111
ltibia 49.8659
lfoot -0.452526 -3.38286
ltoes -11.1845
394
root 0.961625 18.2806 18.0464 2.16221 -1.8707 -1.95616
lowerback 11.6592 0.799789 2.65607
upperback -0.653633 1.62536 2.60871
thorax -7.25283 0.744187 0.972072
lowerneck -20.4041 -4.10269 -9.38136
upperneck 17.116 -4.51549 7.87156
head 9.1351 -1.87691 3.63494
rclavicle -4.17448e-015 -3.33958e-014
rhumerus -42.1551 2.85294 -75.992
rradius 82.0391
rwrist -6.33801
rhand -21.9621 9.47564
rfingers 7.12502
rthumb 4.44532 -20.4577
lclavicle -4.17448e-015 -3.33958e-014
lhumerus -36.5736 5.39613 83.2703
lradius 52.0443
lwrist 0.522846
lhand -26.8935 18.6416
lfingers 7.12502
lthumb -0.317269 48.6211
rfemur -15.6262 6.54694 19.8426
rtibia 36.0779
rfoot 4.02226 -6.34267
rtoes 10.7418
lfemur -22.2469 0.101356 -17.9474
ltibia 48.7811
lfoot -0.286258 -1.72708
ltoes -10.4916
395
root 0.975993 18.3901 18.1816 2.38744 -1.5987 -1.72469
lowerback 11.2105 0.830251 2.45421
upperback -0.742798 1.62076 2.58966
thorax -7.09753 0.750827 1.07179
lowerneck -20.2554 -4.16342 -9.50137
upperneck 17.0476 -4.56243 7.82291
head 9.09146 -1.91506 3.63041
rclavicle 6.95746e-015 3.18055e-015
rhumerus -42.0566 2.95315 -75.6083
rradius 82.8631
rwrist -6.39453
rhand -21.6576 9.60114
rfingers 7.12502
rthumb 4.73937 -20.3259
lclavicle 6.95746e-015 3.18055e-015
lhumerus -36.9352 5.21865 82.7776
lradius 52.1912
lwrist 0.901924
lhand -26.2634 20.2431
lfingers 7.12502
lthumb 0.291318 50.2226
rfemur -14.9834 6.47139 19.486
rtibia 35.0718
rfoot 5.45087 -6.20343
rtoes 11.6664
lfemur -21.7745 0.242758 -18.3695
ltibia 47.5493
lfoot -0.642818 -0.0245504
ltoes -10.5323
396
root 0.991056 18.4889 18.3203 2.75637 -1.65141 -1.60312
lowerback 10.5889 0.999704 2.3322
upperback -0.809855 1.80283 2.5334
thorax -6.81743 0.845883 1.05922
lowerneck -20.3647 -4.28608 -9.53797
upperneck 17.0982 -4.72151 7.8601
head 9.14559 -1.98552 3.62678
rclavicle -2.54444e-014 -7.95139e-015
rhumerus -41.9093 2.83574 -75.293
rradius 83.5329
rwrist -6.45871
rhand -21.2598 10.2892
rfingers 7.12502
rthumb 5.1235 -19.6288
lclavicle -2.54444e-014 -7.95139e-015
lhumerus -37.3016 5.12865 82.1364
lradius 52.9901
lwrist 0.312765
lhand -24.2732 28.5738
lfingers 7.12502
lthumb 2.21353 58.542
rfemur -14.5425 6.52297 19.2194
rtibia 34.1337
rfoot 6.83269 -6.00995
rtoes 13.1062
lfemur -21.4178 0.665345 -18.6731
ltibia 46.1928
lfoot -1.33187 1.51575
ltoes -10.0883
397
root 0.996667 18.5761 18.4484 3.14623 -1.96433 -1.78935
lowerback 10.2121 1.25339 2.2786
upperback -0.940353 2.1287 2.60657
thorax -6.748 1.00949 1.12042
lowerneck -20.5822 -4.37164 -9.60468
upperneck 17.324 -4.82782 7.93546
head 9.27651 -2.02729 3.65119
rclavicle -4.07509e-015 5.56597e-015
rhumerus -41.6651 2.75638 -74.8807
rradius 83.9865
rwrist -6.61306
rhand -20.4982 11.3483
rfingers 7.12502
rthumb 5.85879 -18.5507
lclavicle -4.07509e-015 5.56597e-015
lhumerus -37.6969 5.04671 81.5223
lradius 53.9795
lwrist -0.694672
lhand -22.3299 39.3514
lfingers 7.12502
lthumb 4.09016 69.2919
rfemur -14.2539 6.95762 19.3507
rtibia 33.258
rfoot 8.25613 -5.89683
rtoes 13.3044
lfemur -21.1615 1.31849 -18.5932
ltibia 44.6799
lfoot -1.99283 2.80709
ltoes -8.68844
398
root 1.00151 18.6547 18.5677 3.38867 -1.93645 -1.88068
lowerback 10.1385 1.37575 2.22051
upperback -1.08119 2.29041 2.65032
thorax -6.86103 1.09072 1.17428
lowerneck -20.7245 -4.48723 -9.84838
upperneck 17.5482 -4.95531 8.1306
head 9.40456 -2.07925 3.74467
rclavicle 9.93923e-016 -2.54444e-014
rhumerus -41.2544 2.7261 -74.537
rradius 84.3247
rwrist -7.01075
rhand -20.3213 11.7618
rfingers 7.12502
rthumb 6.02966 -18.1324
lclavicle 9.93923e-016 -2.54444e-014
lhumerus -38.0182 3.74973 81.9644
lradius 57.003
lwrist -0.31201
lhand -17.8517 61.3371
lfingers 7.12502
lthumb 8.41347 -91.1495
rfemur -13.8545 7.29196 19.4306
rtibia 32.445
rfoot 9.54234 -5.93387
rtoes 13.0426
lfemur -20.8444 1.52725 -18.5862
ltibia 42.9832
lfoot -2.49507 3.98125
ltoes -7.05382
399
root 1.00918 18.7252 18.6938 3.53527 -1.52189 -1.72505
lowerback 9.93381 1.36574 2.00683
upperback -1.1435 2.24242 2.6064
thorax -6.81629 1.0751 1.25973
lowerneck -20.7622 -4.62513 -9.87357
upperneck 17.5788 -5.14064 8.14756
head 9.44183 -2.16443 3.72741
rclavicle -2.54444e-014 -3.18055e-015
rhumerus -40.7589 2.72168 -74.3263
rradius 84.7066
rwrist -7.71283
rhand -21.0601 11.5512
rfingers 7.12502
rthumb 5.31635 -18.3621
lclavicle -2.54444e-014 -3.18055e-015
lhumerus -37.9981 5.36345 80.1536
lradius 51.8742
lwrist 3.51893
lhand -26.4527 16.4855
lfingers 7.12502
lthumb 0.108546 46.4652
rfemur -13.2956 7.23288 19.2524
rtibia 31.6994
rfoot 10.6122 -5.98796
rtoes 13.2004
lfemur -20.4059 1.37848 -18.8269
ltibia 41.1101
lfoot -2.75094 4.92258
ltoes -6.41696
400
root 1.02312 18.7904 18.8336 3.69207 -0.918176 -1.43515
lowerback 9.43781 1.31315 1.79381
upperback -1.15105 2.11896 2.45176
thorax -6.54123 1.02187 1.24618
lowerneck -20.6627 -4.7094 -9.73743
upperneck 17.486 -5.31174 8.17974
head 9.40601 -2.23296 3.68996
rclavicle 1.44119e-015 -1.27222e-014
rhumerus -40.3456 2.54158 -74.2019
rradius 85.0704
rwrist -8.38883
rhand -21.6577 11.0336
rfingers 7.12502
rthumb 4.73927 -18.8934
lclavicle 1.44119e-015 -1.27222e-014
lhumerus -38.1871 5.70584 79.1287
lradius 52.4979
lwrist 1.53636
lhand -23.9881 21.2742
lfingers 7.12502
lthumb 2.48888 51.2394
rfemur -12.6428 6.72355 18.9197
rtibia 31.0278
rfoot 11.3607 -5.98786
rtoes 13.4889
lfemur -19.9375 1.12548 -19.2389
ltibia 39.1023
lfoot -2.78275 5.44768
ltoes -7.34027
